<?xml version="1.0" encoding="UTF-8"?>
<svg xmlns="http://www.w3.org/2000/svg" xmlns:xlink="http://www.w3.org/1999/xlink" width="14px" height="14px" viewBox="0 0 14 14" version="1.1">
<g id="surface1">
<path style=" stroke:none;fill-rule:nonzero;fill:rgb(0%,0%,0%);fill-opacity:1;" d="M 3.664062 0 L 3.308594 0 C 3.265625 0 3.222656 0.0078125 3.183594 0.0234375 C 2.976562 0.0898438 2.824219 0.308594 2.824219 0.574219 L 2.824219 1.757812 C 2.824219 1.816406 2.832031 1.875 2.847656 1.929688 C 2.910156 2.160156 3.09375 2.332031 3.308594 2.332031 L 3.664062 2.332031 C 3.929688 2.332031 4.148438 2.074219 4.148438 1.757812 L 4.148438 0.574219 C 4.148438 0.257812 3.929688 0 3.664062 0 Z M 3.664062 0 "/>
<path style=" stroke:none;fill-rule:nonzero;fill:rgb(0%,0%,0%);fill-opacity:1;" d="M 10.585938 0 L 10.234375 0 C 9.964844 0 9.746094 0.257812 9.746094 0.574219 L 9.746094 1.757812 C 9.746094 2.074219 9.964844 2.332031 10.234375 2.332031 L 10.585938 2.332031 C 10.855469 2.332031 11.074219 2.074219 11.074219 1.757812 L 11.074219 0.574219 C 11.074219 0.257812 10.855469 0 10.585938 0 Z M 10.585938 0 "/>
<path style=" stroke:none;fill-rule:nonzero;fill:rgb(0%,0%,0%);fill-opacity:1;" d="M 12.382812 1.4375 L 11.511719 1.4375 L 11.511719 1.757812 C 11.511719 2.316406 11.097656 2.769531 10.585938 2.769531 L 10.234375 2.769531 C 9.722656 2.769531 9.308594 2.316406 9.308594 1.757812 L 9.308594 1.4375 L 4.589844 1.4375 L 4.589844 1.757812 C 4.589844 2.316406 4.171875 2.769531 3.664062 2.769531 L 3.308594 2.769531 C 2.800781 2.769531 2.382812 2.316406 2.382812 1.757812 L 2.382812 1.4375 L 1.625 1.4375 C 1.140625 1.4375 0.75 1.804688 0.75 2.257812 L 0.75 13.1875 C 0.75 13.640625 1.140625 14.007812 1.625 14.007812 L 12.382812 14.007812 C 12.867188 14.007812 13.257812 13.640625 13.257812 13.1875 L 13.257812 2.257812 C 13.257812 1.804688 12.867188 1.4375 12.382812 1.4375 Z M 12.113281 12.804688 L 1.863281 12.800781 L 1.863281 3.988281 L 12.113281 3.988281 Z M 12.113281 12.804688 "/>
<path style=" stroke:none;fill-rule:nonzero;fill:rgb(0%,0%,0%);fill-opacity:1;" d="M 8.101562 6.109375 L 10.796875 6.109375 C 11.03125 6.109375 11.21875 5.878906 11.21875 5.589844 C 11.21875 5.300781 11.03125 5.066406 10.796875 5.066406 L 8.101562 5.066406 C 7.867188 5.066406 7.679688 5.300781 7.679688 5.589844 C 7.679688 5.878906 7.867188 6.109375 8.101562 6.109375 Z M 8.101562 6.109375 "/>
<path style=" stroke:none;fill-rule:nonzero;fill:rgb(0%,0%,0%);fill-opacity:1;" d="M 8.101562 7.996094 L 10.796875 7.996094 C 11.03125 7.996094 11.21875 7.765625 11.21875 7.476562 C 11.21875 7.1875 11.03125 6.953125 10.796875 6.953125 L 8.101562 6.953125 C 7.867188 6.953125 7.679688 7.1875 7.679688 7.476562 C 7.679688 7.765625 7.867188 7.996094 8.101562 7.996094 Z M 8.101562 7.996094 "/>
<path style=" stroke:none;fill-rule:nonzero;fill:rgb(0%,0%,0%);fill-opacity:1;" d="M 8.101562 9.882812 L 10.796875 9.882812 C 11.03125 9.882812 11.21875 9.652344 11.21875 9.363281 C 11.21875 9.074219 11.03125 8.839844 10.796875 8.839844 L 8.101562 8.839844 C 7.867188 8.839844 7.679688 9.074219 7.679688 9.363281 C 7.679688 9.652344 7.867188 9.882812 8.101562 9.882812 Z M 8.101562 9.882812 "/>
<path style=" stroke:none;fill-rule:nonzero;fill:rgb(0%,0%,0%);fill-opacity:1;" d="M 8.101562 11.769531 L 10.796875 11.769531 C 11.03125 11.769531 11.21875 11.539062 11.21875 11.25 C 11.21875 10.960938 11.03125 10.726562 10.796875 10.726562 L 8.101562 10.726562 C 7.867188 10.726562 7.679688 10.960938 7.679688 11.25 C 7.679688 11.539062 7.867188 11.769531 8.101562 11.769531 Z M 8.101562 11.769531 "/>
<path style=" stroke:none;fill-rule:nonzero;fill:rgb(0%,0%,0%);fill-opacity:1;" d="M 3.328125 6.109375 L 6.023438 6.109375 C 6.257812 6.109375 6.445312 5.878906 6.445312 5.589844 C 6.445312 5.300781 6.257812 5.066406 6.023438 5.066406 L 3.328125 5.066406 C 3.09375 5.066406 2.90625 5.300781 2.90625 5.589844 C 2.90625 5.878906 3.09375 6.109375 3.328125 6.109375 Z M 3.328125 6.109375 "/>
<path style=" stroke:none;fill-rule:nonzero;fill:rgb(0%,0%,0%);fill-opacity:1;" d="M 3.328125 7.996094 L 6.023438 7.996094 C 6.257812 7.996094 6.445312 7.765625 6.445312 7.476562 C 6.445312 7.1875 6.257812 6.953125 6.023438 6.953125 L 3.328125 6.953125 C 3.09375 6.953125 2.90625 7.1875 2.90625 7.476562 C 2.90625 7.765625 3.09375 7.996094 3.328125 7.996094 Z M 3.328125 7.996094 "/>
<path style=" stroke:none;fill-rule:nonzero;fill:rgb(0%,0%,0%);fill-opacity:1;" d="M 3.328125 9.882812 L 6.023438 9.882812 C 6.257812 9.882812 6.445312 9.652344 6.445312 9.363281 C 6.445312 9.074219 6.257812 8.839844 6.023438 8.839844 L 3.328125 8.839844 C 3.09375 8.839844 2.90625 9.074219 2.90625 9.363281 C 2.90625 9.652344 3.09375 9.882812 3.328125 9.882812 Z M 3.328125 9.882812 "/>
<path style=" stroke:none;fill-rule:nonzero;fill:rgb(0%,0%,0%);fill-opacity:1;" d="M 3.328125 11.769531 L 6.023438 11.769531 C 6.257812 11.769531 6.445312 11.539062 6.445312 11.25 C 6.445312 10.960938 6.257812 10.726562 6.023438 10.726562 L 3.328125 10.726562 C 3.09375 10.726562 2.90625 10.960938 2.90625 11.25 C 2.90625 11.539062 3.09375 11.769531 3.328125 11.769531 Z M 3.328125 11.769531 "/>
</g>
</svg>
